<?xml version="1.0" encoding="UTF-8"?>
<svg width="984" height="1e3" enable-background="new" inkscape:export-xdpi="90" inkscape:export-ydpi="90" inkscape:output_extension="org.inkscape.output.svg.inkscape" inkscape:version="0.92.2 5c3e80d, 2017-08-06" sodipodi:docname="Page Mockup.svg" sodipodi:version="0.32" version="1.0" xmlns="http://www.w3.org/2000/svg" xmlns:inkscape="http://www.inkscape.org/namespaces/inkscape" xmlns:sodipodi="http://sodipodi.sourceforge.net/DTD/sodipodi-0.dtd">
 <sodipodi:namedview bordercolor="#777777" borderlayer="false" borderopacity="0.4" inkscape:bbox-paths="true" inkscape:cx="490" inkscape:cy="445" inkscape:document-units="px" inkscape:object-paths="true" inkscape:pageopacity="1" inkscape:showpageshadow="false" inkscape:snap-bbox="false" inkscape:snap-global="false" inkscape:snap-grids="false" inkscape:snap-nodes="true" inkscape:snap-to-guides="false" inkscape:window-maximized="1" inkscape:zoom="1" pagecolor="#ffffff" showborder="true" showgrid="false" showguides="true">
  <sodipodi:guide inkscape:locked="false" orientation="1,0" position="12"/>
  <sodipodi:guide inkscape:locked="false" orientation="1,0" position="972"/>
  <inkscape:grid empspacing="10" enabled="true" snapvisiblegridlinesonly="true" type="xygrid" visible="true"/>
 </sodipodi:namedview>
 <g inkscape:groupmode="layer" inkscape:label="Page"></g>
 <g transform="translate(12 -.36219)" opacity=".5" inkscape:groupmode="layer" inkscape:label="Grid">
  <g inkscape:groupmode="layer" inkscape:label="12" sodipodi:insensitive="true">
   <g fill="#f00" stroke-width="0">
    <rect x="10" y=".36219" width="60" height="1e3" color="#000000" enable-background="accumulate" opacity=".1"/>
    <rect x="90" y=".36219" width="60" height="1e3" color="#000000" enable-background="accumulate" opacity=".1"/>
    <rect x="170" y=".36219" width="60" height="1e3" color="#000000" enable-background="accumulate" opacity=".1"/>
    <rect x="250" y=".36219" width="60" height="1e3" color="#000000" enable-background="accumulate" opacity=".1"/>
    <rect x="330" y=".36219" width="60" height="1e3" color="#000000" enable-background="accumulate" opacity=".1"/>
    <rect x="410" y=".36219" width="60" height="1e3" color="#000000" enable-background="accumulate" opacity=".1"/>
    <rect x="490" y=".36219" width="60" height="1e3" color="#000000" enable-background="accumulate" opacity=".1"/>
    <rect x="570" y=".36219" width="60" height="1e3" color="#000000" enable-background="accumulate" opacity=".1"/>
    <rect x="650" y=".36219" width="60" height="1e3" color="#000000" enable-background="accumulate" opacity=".1"/>
    <rect x="730" y=".36219" width="60" height="1e3" color="#000000" enable-background="accumulate" opacity=".1"/>
    <rect x="810" y=".36219" width="60" height="1e3" color="#000000" enable-background="accumulate" opacity=".1"/>
    <rect x="890" y=".36219" width="60" height="1e3" color="#000000" enable-background="accumulate" opacity=".1"/>
   </g>
  </g>
  <g display="none" inkscape:groupmode="layer" inkscape:label="16" sodipodi:insensitive="true">
   <g fill="#f00" stroke-width="0">
    <rect x="10" y=".36219" width="40" height="1e3" color="#000000" display="inline" enable-background="accumulate" opacity=".1"/>
    <rect x="70" y=".36219" width="40" height="1e3" color="#000000" display="inline" enable-background="accumulate" opacity=".1"/>
    <rect x="130" y=".36219" width="40" height="1e3" color="#000000" display="inline" enable-background="accumulate" opacity=".1"/>
    <rect x="190" y=".36219" width="40" height="1e3" color="#000000" display="inline" enable-background="accumulate" opacity=".1"/>
    <rect x="250" y=".36219" width="40" height="1e3" color="#000000" display="inline" enable-background="accumulate" opacity=".1"/>
    <rect x="310" y=".36219" width="40" height="1e3" color="#000000" display="inline" enable-background="accumulate" opacity=".1"/>
    <rect x="370" y=".36219" width="40" height="1e3" color="#000000" display="inline" enable-background="accumulate" opacity=".1"/>
    <rect x="430" y=".36219" width="40" height="1e3" color="#000000" display="inline" enable-background="accumulate" opacity=".1"/>
    <rect x="490" y=".36219" width="40" height="1e3" color="#000000" display="inline" enable-background="accumulate" opacity=".1"/>
    <rect x="550" y=".36219" width="40" height="1e3" color="#000000" display="inline" enable-background="accumulate" opacity=".1"/>
    <rect x="610" y=".36219" width="40" height="1e3" color="#000000" display="inline" enable-background="accumulate" opacity=".1"/>
    <rect x="670" y=".36219" width="40" height="1e3" color="#000000" display="inline" enable-background="accumulate" opacity=".1"/>
    <rect x="730" y=".36219" width="40" height="1e3" color="#000000" display="inline" enable-background="accumulate" opacity=".1"/>
    <rect x="790" y=".36219" width="40" height="1e3" color="#000000" display="inline" enable-background="accumulate" opacity=".1"/>
    <rect x="850" y=".36219" width="40" height="1e3" color="#000000" display="inline" enable-background="accumulate" opacity=".1"/>
    <rect x="910" y=".36219" width="40" height="1e3" color="#000000" display="inline" enable-background="accumulate" opacity=".1"/>
   </g>
  </g>
 </g>
</svg>
